<svg width="16" height="16" viewBox="0 0 16 16" fill="none" xmlns="http://www.w3.org/2000/svg">
<path d="M10.6667 13.3333H5.33333C4.8029 13.3333 4.29419 13.1226 3.91912 12.7476C3.54405 12.3725 3.33333 11.8638 3.33333 11.3333V4.66668C3.33333 4.48987 3.2631 4.3203 3.13807 4.19527C3.01305 4.07025 2.84348 4.00001 2.66667 4.00001C2.48986 4.00001 2.32029 4.07025 2.19526 4.19527C2.07024 4.3203 2 4.48987 2 4.66668V11.3333C2 12.2174 2.35119 13.0652 2.97631 13.6904C3.60143 14.3155 4.44928 14.6667 5.33333 14.6667H10.6667C10.8435 14.6667 11.013 14.5964 11.1381 14.4714C11.2631 14.3464 11.3333 14.1768 11.3333 14C11.3333 13.8232 11.2631 13.6536 11.1381 13.5286C11.013 13.4036 10.8435 13.3333 10.6667 13.3333ZM14 5.96001C13.9931 5.89877 13.9796 5.83843 13.96 5.78001V5.72001C13.9279 5.65146 13.8852 5.58845 13.8333 5.53334V5.53334L9.83333 1.53334C9.77822 1.48149 9.71521 1.43873 9.64667 1.40668H9.58667L9.37333 1.33334H6.66667C6.13623 1.33334 5.62753 1.54406 5.25245 1.91913C4.87738 2.2942 4.66667 2.80291 4.66667 3.33334V10C4.66667 10.5304 4.87738 11.0392 5.25245 11.4142C5.62753 11.7893 6.13623 12 6.66667 12H12C12.5304 12 13.0391 11.7893 13.4142 11.4142C13.7893 11.0392 14 10.5304 14 10V6.00001C14 6.00001 14 6.00001 14 5.96001ZM10 3.60668L11.7267 5.33334H10.6667C10.4899 5.33334 10.3203 5.26311 10.1953 5.13808C10.0702 5.01306 10 4.84349 10 4.66668V3.60668ZM12.6667 10C12.6667 10.1768 12.5964 10.3464 12.4714 10.4714C12.3464 10.5964 12.1768 10.6667 12 10.6667H6.66667C6.48986 10.6667 6.32029 10.5964 6.19526 10.4714C6.07024 10.3464 6 10.1768 6 10V3.33334C6 3.15653 6.07024 2.98696 6.19526 2.86194C6.32029 2.73691 6.48986 2.66668 6.66667 2.66668H8.66667V4.66668C8.66667 5.19711 8.87738 5.70582 9.25245 6.08089C9.62753 6.45596 10.1362 6.66668 10.6667 6.66668H12.6667V10Z" fill="#8B8D97"/>
</svg>
