<svg width="16" height="17" viewBox="0 0 16 17" fill="none" xmlns="http://www.w3.org/2000/svg">
<path d="M14 5.66666H2C1.72667 5.66666 1.5 5.44 1.5 5.16666C1.5 4.89333 1.72667 4.66666 2 4.66666H14C14.2733 4.66666 14.5 4.89333 14.5 5.16666C14.5 5.44 14.2733 5.66666 14 5.66666Z" fill="#00092E"/>
<path d="M12 9H4C3.72667 9 3.5 8.77333 3.5 8.5C3.5 8.22667 3.72667 8 4 8H12C12.2733 8 12.5 8.22667 12.5 8.5C12.5 8.77333 12.2733 9 12 9Z" fill="#00092E"/>
<path d="M9.33332 12.3333H6.66666C6.39332 12.3333 6.16666 12.1067 6.16666 11.8333C6.16666 11.56 6.39332 11.3333 6.66666 11.3333H9.33332C9.60666 11.3333 9.83332 11.56 9.83332 11.8333C9.83332 12.1067 9.60666 12.3333 9.33332 12.3333Z" fill="#00092E"/>
</svg>
